<svg width="39" height="39" viewBox="0 0 39 39" fill="none" xmlns="http://www.w3.org/2000/svg">
<path d="M39 19.4805C39 8.72625 30.264 0 19.5 0C8.736 0 0 8.72625 0 19.4805C0 25.4036 2.691 30.7417 6.903 34.3249C6.942 34.3639 6.981 34.3639 6.981 34.4029C7.332 34.6759 7.683 34.9489 8.073 35.2219C8.268 35.3389 8.424 35.4924 8.619 35.6484C11.8415 37.8333 15.6456 39.0009 19.539 39C23.4324 39.0009 27.2365 37.8333 30.459 35.6484C30.654 35.5314 30.81 35.3779 31.005 35.2584C31.356 34.9879 31.746 34.7149 32.097 34.4419C32.136 34.4029 32.175 34.4029 32.175 34.3639C36.309 30.7393 39 25.4036 39 19.4805ZM19.5 36.5454C15.834 36.5454 12.48 35.3754 9.711 33.4279C9.75 33.1159 9.828 32.8063 9.906 32.4943C10.1384 31.6488 10.4792 30.8368 10.92 30.0788C11.349 29.3377 11.856 28.6748 12.48 28.0898C13.065 27.5048 13.767 26.9612 14.469 26.5322C15.21 26.1032 15.99 25.7912 16.848 25.5572C17.7127 25.3241 18.6045 25.2069 19.5 25.2086C22.1585 25.1898 24.7192 26.2096 26.637 28.0508C27.534 28.9478 28.236 30.0008 28.743 31.2073C29.016 31.9093 29.211 32.6503 29.328 33.4279C26.4497 35.4514 23.0184 36.5399 19.5 36.5454ZM13.533 18.5079C13.1894 17.7212 13.0166 16.8704 13.026 16.0119C13.026 15.1564 13.182 14.2984 13.533 13.5184C13.884 12.7384 14.352 12.0388 14.937 11.4538C15.522 10.8688 16.224 10.4032 17.004 10.0522C17.784 9.70125 18.642 9.54525 19.5 9.54525C20.397 9.54525 21.216 9.70125 21.996 10.0522C22.776 10.4032 23.478 10.8713 24.063 11.4538C24.648 12.0388 25.116 12.7408 25.467 13.5184C25.818 14.2984 25.974 15.1564 25.974 16.0119C25.974 16.9089 25.818 17.7279 25.467 18.5055C25.1283 19.274 24.6525 19.9744 24.063 20.5725C23.4647 21.1611 22.7643 21.636 21.996 21.9741C20.3844 22.6364 18.5766 22.6364 16.965 21.9741C16.1967 21.636 15.4963 21.1611 14.898 20.5725C14.3077 19.9831 13.8433 19.2799 13.533 18.5055V18.5079ZM31.629 31.4413C31.629 31.3633 31.59 31.3243 31.59 31.2463C31.2064 30.0261 30.6411 28.8708 29.913 27.8192C29.1842 26.7598 28.2886 25.8255 27.261 25.0526C26.4762 24.4622 25.6255 23.9649 24.726 23.5706C25.1352 23.3007 25.5144 22.9877 25.857 22.6371C26.4384 22.063 26.9491 21.4215 27.378 20.7261C28.2418 19.307 28.6878 17.6731 28.665 16.0119C28.6771 14.7823 28.4382 13.563 27.963 12.4288C27.4938 11.3359 26.8185 10.3437 25.974 9.50625C25.1307 8.67758 24.1383 8.01594 23.049 7.55625C21.9129 7.0819 20.6921 6.84387 19.461 6.85669C18.2297 6.84465 17.0089 7.0835 15.873 7.55869C14.7743 8.01739 13.7795 8.69306 12.948 9.54525C12.1194 10.3876 11.4577 11.3793 10.998 12.4678C10.5228 13.602 10.2839 14.8213 10.296 16.0509C10.296 16.9089 10.413 17.7279 10.647 18.5055C10.881 19.3245 11.193 20.0655 11.622 20.7651C12.012 21.4671 12.558 22.0911 13.143 22.6761C13.494 23.0271 13.884 23.3366 14.313 23.6096C13.4107 24.0144 12.5598 24.525 11.778 25.1306C10.764 25.9106 9.867 26.8442 9.126 27.8582C8.39051 28.9054 7.82457 30.062 7.449 31.2853C7.41 31.3633 7.41 31.4413 7.41 31.4803C4.329 28.3627 2.418 24.1556 2.418 19.4805C2.418 10.0913 10.101 2.41556 19.5 2.41556C28.899 2.41556 36.582 10.0913 36.582 19.4805C36.5769 23.9654 34.7961 28.2658 31.629 31.4413Z" fill="#4B4B4B"/>
</svg>
