<svg width="12" height="13" viewBox="0 0 12 13" fill="none" xmlns="http://www.w3.org/2000/svg">
<path d="M9.00331 6.9465C8.44089 7.48109 8.13101 8.19515 8.13101 8.95721C8.13101 9.71906 8.44089 10.4331 9.00331 10.9679C9.16132 11.1179 9.36331 11.1924 9.56529 11.1924C9.78108 11.1924 9.99624 11.1073 10.1566 10.9386C10.4671 10.6122 10.4539 10.0961 10.1275 9.78554C9.89217 9.56189 9.76239 9.26773 9.76239 8.957C9.76239 8.64648 9.89217 8.35232 10.1275 8.12867C10.6901 7.59387 11 6.87981 11 6.11775C11 5.3559 10.6901 4.64183 10.1275 4.10703C9.80105 3.79673 9.28472 3.80968 8.97421 4.13634C8.6639 4.46279 8.67686 4.9789 9.00331 5.28942C9.23885 5.51307 9.36841 5.80723 9.36841 6.11796C9.36841 6.42847 9.23885 6.72264 9.00331 6.9465Z" fill="white"/>
<path d="M5.62394 6.92844C5.06132 7.46303 4.75165 8.17731 4.75165 8.93916C4.75165 9.70101 5.06132 10.4151 5.62394 10.9499C5.78175 11.0998 5.98395 11.1744 6.18593 11.1744C6.40172 11.1744 6.61687 11.0894 6.77723 10.9208C7.08775 10.5943 7.07458 10.078 6.74813 9.7677C6.5128 9.54405 6.38324 9.24967 6.38324 8.93916C6.38324 8.62864 6.5128 8.33427 6.74813 8.11062C7.31076 7.57603 7.62042 6.86175 7.62042 6.0999C7.62042 5.33805 7.31076 4.62378 6.74813 4.08919C6.5128 3.86554 6.38324 3.57117 6.38324 3.26065C6.38324 2.95013 6.5128 2.65576 6.74813 2.43211C7.07458 2.1218 7.08775 1.60548 6.77723 1.27903C6.46692 0.952587 5.95039 0.939631 5.62394 1.24994C5.06132 1.78453 4.75165 2.4988 4.75165 3.26065C4.75165 4.0225 5.06132 4.73656 5.62394 5.27136C5.85948 5.49501 5.98904 5.78939 5.98904 6.0999C5.98904 6.41042 5.85948 6.7048 5.62394 6.92844Z" fill="white"/>
<path d="M1.74375 8.75501C1.89115 8.89498 1.97228 9.07806 1.97228 9.27049C1.97228 9.4627 1.89115 9.64578 1.74375 9.78575C1.4173 10.0961 1.40414 10.6124 1.71444 10.9388C1.87501 11.1075 2.09016 11.1924 2.30595 11.1924C2.50772 11.1924 2.70992 11.1181 2.86773 10.9681C3.34242 10.517 3.60367 9.91404 3.60367 9.27049C3.60367 8.62673 3.34242 8.02375 2.86773 7.57284C2.72054 7.43266 2.63919 7.24979 2.63919 7.05737C2.63919 6.86515 2.72033 6.68207 2.86773 6.54189C3.19439 6.23159 3.20734 5.71547 2.89704 5.38903C2.58652 5.06237 2.0702 5.04941 1.74375 5.35972C1.26905 5.81084 1.00781 6.41382 1.00781 7.05737C1.00781 7.70112 1.26905 8.30389 1.74375 8.75501Z" fill="white"/>
</svg>
