<svg width="12" height="13" viewBox="0 0 12 13" fill="none" xmlns="http://www.w3.org/2000/svg">
<path d="M6.67189 9.07812C6.67199 9.25917 6.62443 9.43705 6.53399 9.59389C6.44354 9.75073 6.3134 9.88099 6.15665 9.97158C5.99989 10.0622 5.82205 10.1099 5.64101 10.11C5.45996 10.11 5.28209 10.0624 5.12527 9.97194C4.96845 9.88146 4.83822 9.7513 4.74766 9.59452C4.65711 9.43775 4.60942 9.2599 4.60939 9.07886C4.60937 8.89781 4.657 8.71995 4.74752 8.56315C4.83803 8.40635 4.96823 8.27614 5.12502 8.18562V3.40625C5.12502 3.2695 5.17934 3.13835 5.27604 3.04165C5.37274 2.94495 5.50389 2.89062 5.64064 2.89062C5.77739 2.89062 5.90855 2.94495 6.00524 3.04165C6.10194 3.13835 6.15627 3.2695 6.15627 3.40625V8.18562C6.31292 8.27611 6.44303 8.40621 6.53353 8.56286C6.62403 8.71951 6.67175 8.89721 6.67189 9.07812ZM9.25865 4.80209C9.29057 4.77016 9.32846 4.74483 9.37017 4.72754C9.41188 4.71026 9.45658 4.70137 9.50173 4.70137C9.54687 4.70137 9.59158 4.71026 9.63329 4.72754C9.67499 4.74483 9.71289 4.77016 9.7448 4.80209C10.0029 5.05957 10.3525 5.20416 10.7171 5.20416C11.0816 5.20416 11.4313 5.05957 11.6894 4.80209C11.7856 4.7053 11.8396 4.57428 11.8394 4.43778C11.8392 4.30127 11.7849 4.1704 11.6883 4.07388C11.5918 3.97735 11.4609 3.92305 11.3244 3.92287C11.1879 3.92269 11.0569 3.97664 10.9601 4.07291C10.9282 4.10484 10.8903 4.13017 10.8486 4.14746C10.8069 4.16474 10.7622 4.17363 10.7171 4.17363C10.6719 4.17363 10.6272 4.16474 10.5855 4.14746C10.5438 4.13017 10.5059 4.10484 10.474 4.07291C10.2159 3.81543 9.86625 3.67084 9.50171 3.67084C9.13716 3.67084 8.7875 3.81543 8.52943 4.07291C8.43317 4.1697 8.37922 4.30072 8.37941 4.43722C8.3796 4.57373 8.43391 4.7046 8.53044 4.80112C8.62697 4.89764 8.75784 4.95195 8.89435 4.95213C9.03086 4.95231 9.16187 4.89836 9.25865 4.80209ZM10.9601 5.79166C10.9282 5.82359 10.8903 5.84892 10.8486 5.86621C10.8069 5.88349 10.7622 5.89238 10.7171 5.89238C10.6719 5.89238 10.6272 5.88349 10.5855 5.86621C10.5438 5.84892 10.5059 5.82359 10.474 5.79166C10.2159 5.53418 9.86625 5.38959 9.50171 5.38959C9.13716 5.38959 8.7875 5.53418 8.52943 5.79166C8.43317 5.88845 8.37922 6.01946 8.37941 6.15597C8.3796 6.29248 8.43391 6.42335 8.53044 6.51987C8.62697 6.61639 8.75784 6.6707 8.89435 6.67088C9.03086 6.67106 9.16187 6.61711 9.25865 6.52084C9.29057 6.48891 9.32846 6.46358 9.37017 6.44629C9.41188 6.42901 9.45658 6.42012 9.50173 6.42012C9.54687 6.42012 9.59158 6.42901 9.63329 6.44629C9.67499 6.46358 9.71289 6.48891 9.7448 6.52084C10.0029 6.77832 10.3525 6.92291 10.7171 6.92291C11.0816 6.92291 11.4313 6.77832 11.6894 6.52084C11.7856 6.42405 11.8396 6.29303 11.8394 6.15653C11.8392 6.02002 11.7849 5.88915 11.6883 5.79263C11.5918 5.6961 11.4609 5.6418 11.3244 5.64162C11.1879 5.64144 11.0569 5.69539 10.9601 5.79166ZM7.87502 7.47492C8.16986 7.88586 8.34566 8.37015 8.38309 8.87454C8.42051 9.37892 8.31812 9.88386 8.08716 10.3338C7.8562 10.7838 7.50562 11.1613 7.07399 11.4249C6.64235 11.6886 6.14637 11.828 5.6406 11.828C5.13483 11.828 4.63885 11.6885 4.20722 11.4249C3.77559 11.1613 3.42502 10.7837 3.19407 10.3338C2.96312 9.88381 2.86073 9.37887 2.89817 8.87449C2.93561 8.3701 3.11142 7.88581 3.40627 7.47487V3.40625C3.40627 2.81366 3.64167 2.24533 4.0607 1.82631C4.47973 1.40728 5.04805 1.17188 5.64064 1.17188C6.23323 1.17188 6.80156 1.40728 7.22058 1.82631C7.63961 2.24533 7.87502 2.81366 7.87502 3.40625V7.47492ZM7.35939 9.07812C7.35926 8.6771 7.21904 8.28872 6.96296 7.9801C6.88596 7.88749 6.84381 7.77084 6.84381 7.6504L6.84377 3.40625C6.84377 3.08716 6.71701 2.78114 6.49138 2.55551C6.26575 2.32988 5.95973 2.20312 5.64064 2.20312C5.32155 2.20312 5.01553 2.32988 4.7899 2.55551C4.56427 2.78114 4.43752 3.08716 4.43752 3.40625V7.65049C4.43751 7.77397 4.39321 7.89335 4.31265 7.98693C4.13772 8.19984 4.01654 8.45168 3.95934 8.72123C3.90213 8.99078 3.91057 9.27014 3.98395 9.53574C4.05733 9.80134 4.19349 10.0454 4.38096 10.2474C4.56843 10.4493 4.8017 10.6032 5.06112 10.6962C5.32054 10.7891 5.59849 10.8182 5.87154 10.7812C6.1446 10.7442 6.40475 10.6421 6.63007 10.4834C6.85538 10.3248 7.03926 10.1143 7.16619 9.86977C7.29312 9.62519 7.35938 9.35368 7.35939 9.07812Z" fill="white"/>
</svg>
