<svg width="37" height="37" viewBox="0 0 37 37" fill="none" xmlns="http://www.w3.org/2000/svg">
<path d="M18.5 5C11.0559 5 5 11.0559 5 18.5C5 25.9441 11.0559 32 18.5 32C25.9441 32 32 25.9441 32 18.5C32 11.0559 25.9441 5 18.5 5ZM11.1875 21.3125C9.63613 21.3125 8.375 20.0503 8.375 18.5C8.375 16.9497 9.63613 15.6875 11.1875 15.6875C12.7389 15.6875 14 16.9497 14 18.5C14 20.0503 12.7389 21.3125 11.1875 21.3125ZM18.5 21.3125C16.9486 21.3125 15.6875 20.0503 15.6875 18.5C15.6875 16.9497 16.9486 15.6875 18.5 15.6875C20.0514 15.6875 21.3125 16.9497 21.3125 18.5C21.3125 20.0503 20.0514 21.3125 18.5 21.3125ZM25.8125 21.3125C24.2611 21.3125 23 20.0503 23 18.5C23 16.9497 24.2611 15.6875 25.8125 15.6875C27.3639 15.6875 28.625 16.9497 28.625 18.5C28.625 20.0503 27.3639 21.3125 25.8125 21.3125Z" fill="#4B4B4B"/>
</svg>
