<svg width="12" height="13" viewBox="0 0 12 13" fill="none" xmlns="http://www.w3.org/2000/svg">
<path d="M9.25 10H2.75C2.6125 10 2.5 10.1125 2.5 10.25V10.75C2.5 10.8875 2.6125 11 2.75 11H9.25C9.3875 11 9.5 10.8875 9.5 10.75V10.25C9.5 10.1125 9.3875 10 9.25 10ZM10.25 5C9.83594 5 9.5 5.33594 9.5 5.75C9.5 5.86094 9.525 5.96406 9.56875 6.05938L8.4375 6.7375C8.19688 6.88125 7.88594 6.8 7.74687 6.55625L6.47344 4.32812C6.64062 4.19062 6.75 3.98438 6.75 3.75C6.75 3.33594 6.41406 3 6 3C5.58594 3 5.25 3.33594 5.25 3.75C5.25 3.98438 5.35938 4.19062 5.52656 4.32812L4.25312 6.55625C4.11406 6.8 3.80156 6.88125 3.5625 6.7375L2.43281 6.05938C2.475 5.96563 2.50156 5.86094 2.50156 5.75C2.50156 5.33594 2.16562 5 1.75156 5C1.3375 5 1 5.33594 1 5.75C1 6.16406 1.33594 6.5 1.75 6.5C1.79062 6.5 1.83125 6.49375 1.87031 6.4875L3 9.5H9L10.1297 6.4875C10.1687 6.49375 10.2094 6.5 10.25 6.5C10.6641 6.5 11 6.16406 11 5.75C11 5.33594 10.6641 5 10.25 5Z" fill="white"/>
</svg>
