<svg width="44" height="44" viewBox="0 0 44 44" fill="none" xmlns="http://www.w3.org/2000/svg">
<path d="M29.9536 26.9833C32.0119 24.1747 32.9337 20.6926 32.5348 17.2335C32.1358 13.7744 30.4455 10.5935 27.802 8.32716C25.1585 6.06082 21.7568 4.87619 18.2773 5.01025C14.7979 5.14432 11.4974 6.58721 9.03612 9.05025C6.57484 11.5133 5.13431 14.8148 5.00274 18.2944C4.87116 21.7739 6.05823 25.1748 8.32646 27.8167C10.5947 30.4586 13.7768 32.1466 17.2362 32.543C20.6955 32.9395 24.1771 32.0152 26.9842 29.9549H26.982C27.0458 30.04 27.1138 30.1207 27.1904 30.1994L35.3739 38.383C35.7725 38.7818 36.3132 39.006 36.8771 39.0062C37.4409 39.0064 37.9818 38.7826 38.3806 38.384C38.7795 37.9855 39.0036 37.4448 39.0038 36.8809C39.004 36.3171 38.7802 35.7762 38.3817 35.3774L30.1981 27.1938C30.1221 27.1168 30.0404 27.0458 29.9536 26.9812V26.9833ZM30.5021 18.8125C30.5021 20.3478 30.1997 21.868 29.6121 23.2864C29.0246 24.7048 28.1635 25.9936 27.0779 27.0792C25.9923 28.1648 24.7035 29.0259 23.2851 29.6134C21.8667 30.201 20.3465 30.5033 18.8112 30.5033C17.276 30.5033 15.7557 30.201 14.3373 29.6134C12.9189 29.0259 11.6301 28.1648 10.5445 27.0792C9.45895 25.9936 8.59781 24.7048 8.01029 23.2864C7.42277 21.868 7.12037 20.3478 7.12037 18.8125C7.12037 15.7119 8.35208 12.7383 10.5445 10.5458C12.737 8.35338 15.7106 7.12167 18.8112 7.12167C21.9118 7.12167 24.8854 8.35338 27.0779 10.5458C29.2703 12.7383 30.5021 15.7119 30.5021 18.8125Z" fill="#4B4B4B"/>
</svg>
