<svg width="12" height="11" viewBox="0 0 12 11" fill="none" xmlns="http://www.w3.org/2000/svg">
<path d="M11.2582 1.10851C11.0253 0.881683 10.6529 0.886276 10.426 1.11925C10.1992 1.35219 10.2038 1.72464 10.4367 1.95146C10.4386 1.95339 10.6314 2.17714 10.613 2.60514C10.6049 2.79416 10.5486 3.07269 10.3683 3.43239C10.5568 3.53701 10.7314 3.66271 10.8847 3.81287C11.0234 3.94883 11.1429 4.1035 11.2455 4.27135C11.5788 3.71692 11.7666 3.17666 11.7889 2.65534C11.8303 1.69475 11.3169 1.1656 11.2582 1.10851Z" fill="white"/>
<path d="M9.0336 3.88232C8.25081 3.88232 7.41934 4.27314 6.96566 4.90535C4.64134 8.14729 2.28956 8.31358 1.05273 8.31358C0.911313 8.31358 0.784492 8.31129 0.674148 8.31129C0.243859 8.31129 0.0599452 8.34422 0.222789 8.66571C0.608594 9.42818 2.36849 10.3616 4.53025 10.3616C6.27135 10.3616 8.27299 9.75579 10.026 7.9672C10.9103 7.06523 11.2368 5.2571 10.3352 4.37313C9.98878 4.03368 9.52056 3.88232 9.0336 3.88232Z" fill="white"/>
<path d="M1.67294 6.75811C1.62876 6.18558 1.73556 4.88675 3.44209 4.15538C3.44209 4.15538 2.80855 5.68765 3.66665 6.46289C4.28922 5.97701 4.72715 5.18342 4.77208 4.41591C4.90119 2.202 3.35549 1.03681 2.35197 0.517645C2.24931 0.464371 2.12399 0.482371 2.04088 0.562856C1.95735 0.642941 1.93473 0.767441 1.98379 0.872066C2.37151 1.69512 2.63244 3.16758 0.973773 4.88143C0.467359 5.40436 0.88 6.36638 1.67294 6.75811Z" fill="white"/>
</svg>
