<svg width="12" height="13" viewBox="0 0 12 13" fill="none" xmlns="http://www.w3.org/2000/svg">
<g clip-path="url(#clip0)">
<path d="M4.92 5.836C4.49067 6.26533 3.94933 6.48 3.296 6.48C2.64267 6.48 2.09667 6.26533 1.658 5.836C1.21933 5.39733 1 4.86533 1 4.24C1 3.61467 1.21933 3.08733 1.658 2.658C2.09667 2.21933 2.64267 2 3.296 2C3.94933 2 4.49067 2.21467 4.92 2.644C5.35867 3.07333 5.578 3.60533 5.578 4.24C5.578 4.86533 5.35867 5.39733 4.92 5.836ZM3.282 5.248C3.58067 5.248 3.82333 5.15 4.01 4.954C4.19667 4.758 4.29 4.52 4.29 4.24C4.29 3.95067 4.19667 3.708 4.01 3.512C3.82333 3.316 3.58067 3.218 3.282 3.218C2.99267 3.218 2.75467 3.316 2.568 3.512C2.38133 3.708 2.288 3.95067 2.288 4.24C2.288 4.52 2.38133 4.758 2.568 4.954C2.75467 5.15 2.99267 5.248 3.282 5.248ZM1.826 10.54L8.28 3.358L9.036 3.792L2.582 10.988L1.826 10.54ZM7.776 12.15C7.12267 12.15 6.57667 11.9353 6.138 11.506C5.69933 11.0673 5.48 10.5353 5.48 9.91C5.48 9.28467 5.69933 8.75733 6.138 8.328C6.57667 7.88933 7.12267 7.67 7.776 7.67C8.42 7.67 8.96133 7.88933 9.4 8.328C9.83867 8.75733 10.058 9.28467 10.058 9.91C10.058 10.5353 9.83867 11.0673 9.4 11.506C8.96133 11.9353 8.42 12.15 7.776 12.15ZM7.762 10.918C8.06067 10.918 8.30333 10.82 8.49 10.624C8.67667 10.428 8.77 10.19 8.77 9.91C8.77 9.62067 8.67667 9.378 8.49 9.182C8.30333 8.986 8.06067 8.888 7.762 8.888C7.47267 8.888 7.23467 8.986 7.048 9.182C6.86133 9.378 6.768 9.62067 6.768 9.91C6.768 10.19 6.86133 10.428 7.048 10.624C7.23467 10.82 7.47267 10.918 7.762 10.918Z" fill="white"/>
</g>
<defs>
<clipPath id="clip0">
<rect width="12" height="12" fill="white" transform="translate(0 0.5)"/>
</clipPath>
</defs>
</svg>
