<svg width="12" height="13" viewBox="0 0 12 13" fill="none" xmlns="http://www.w3.org/2000/svg">
<path d="M10.694 2.2025C10.665 2.13025 10.6093 2.07197 10.5384 2.03978C10.4675 2.00759 10.3869 2.00397 10.3135 2.02967C10.24 2.05536 10.1792 2.1084 10.1438 2.17775C10.1085 2.2471 10.1012 2.32742 10.1235 2.402C10.588 3.737 9.66603 4.734 8.96302 5.268L8.67902 4.861C8.58352 4.7245 8.37002 4.611 8.20402 4.609L6.61002 4.616C6.4153 4.62188 6.22579 4.68027 6.06152 4.785L1.36452 8.0785C1.25527 8.15538 1.18093 8.27242 1.15779 8.40399C1.13464 8.53556 1.16457 8.67094 1.24102 8.7805L3.37552 11.8345C3.53552 12.062 3.79102 12.0345 4.01902 11.8755L8.71602 8.5815C8.85102 8.486 9.00703 8.28 9.06203 8.1225L9.56102 6.55C9.61602 6.393 9.58253 6.1535 9.48703 6.017L9.31402 5.769C10.258 5.0455 11.238 3.767 10.694 2.2025ZM8.50852 6.8815C8.42199 6.94207 8.32438 6.98499 8.22125 7.00782C8.11812 7.03065 8.01151 7.03294 7.9075 7.01455C7.80349 6.99617 7.70412 6.95746 7.61507 6.90066C7.52603 6.84386 7.44904 6.77006 7.38853 6.6835C7.26599 6.50832 7.21796 6.29169 7.25499 6.08114C7.29202 5.8706 7.41108 5.68335 7.58602 5.5605C7.72318 5.4644 7.88693 5.41357 8.05439 5.41509C8.22185 5.41662 8.38464 5.47042 8.52002 5.569C8.38402 5.651 8.29052 5.699 8.27302 5.7065C8.21104 5.73605 8.16094 5.78578 8.13092 5.84753C8.1009 5.90929 8.09275 5.97941 8.1078 6.04641C8.12285 6.1134 8.16021 6.1733 8.21375 6.21628C8.2673 6.25927 8.33386 6.28279 8.40252 6.283C8.44552 6.283 8.48952 6.273 8.53102 6.2535C8.62803 6.2075 8.73202 6.153 8.84052 6.0885C8.86548 6.23853 8.84756 6.39256 8.78883 6.53285C8.73009 6.67314 8.63293 6.794 8.50852 6.8815Z" fill="white"/>
</svg>
