<svg width="37" height="37" viewBox="0 0 37 37" fill="none" xmlns="http://www.w3.org/2000/svg">
<path d="M14.418 10.0636L13.7174 10.7643C12.9955 11.4826 12.5396 12.4252 12.4248 13.4371H22.8002C22.6837 12.4258 22.2282 11.4837 21.508 10.7643L20.8074 10.0636C20.4175 9.67372 20.0882 9.22765 19.8303 8.74023H15.3952C15.1373 9.22765 14.8079 9.67372 14.418 10.0636V10.0636Z" fill="#4B4B4B"/>
<path d="M16.0471 6.13125C16.0477 6.66121 15.9719 7.18849 15.8223 7.69688H19.4031C19.2534 7.1885 19.1777 6.66121 19.1783 6.13125V5.60938H16.0471V6.13125Z" fill="#4B4B4B"/>
<path d="M17.6123 20.7439V17.0908C17.6123 16.9524 17.6673 16.8197 17.7652 16.7218C17.863 16.6239 17.9958 16.5689 18.1342 16.5689H22.8311V14.4814H12.3936V20.7439H17.6123ZM13.4373 15.5252H14.4811V16.5689H13.4373V15.5252ZM13.4373 17.6127H14.4811V19.7002H13.4373V17.6127Z" fill="#4B4B4B"/>
<path d="M9.00176 3H7.43613C7.0038 3 6.65332 3.35048 6.65332 3.78281C6.65332 4.21515 7.0038 4.56562 7.43613 4.56562H9.00176C9.43409 4.56562 9.78457 4.21515 9.78457 3.78281C9.78457 3.35048 9.43409 3 9.00176 3Z" fill="#4B4B4B"/>
<path d="M6.50028 31.3337L6.8063 31.6397C7.18177 32.0129 7.68929 32.2231 8.21875 32.2246C8.7485 32.2246 9.25656 32.0142 9.6312 31.6397L9.93722 31.3337C9.98568 31.2852 10.0432 31.2468 10.1065 31.2206C10.1698 31.1943 10.2377 31.1808 10.3063 31.1808C10.3748 31.1808 10.4427 31.1943 10.506 31.2206C10.5693 31.2468 10.6268 31.2852 10.6753 31.3337L11.1789 31.8373C11.3289 31.9878 11.5131 32.0997 11.7158 32.1634C11.4765 31.7861 11.3496 31.3485 11.35 30.9017V29.6524C11.3501 28.8802 11.4747 28.113 11.7188 27.3804C12.1387 26.1208 12.1387 24.7589 11.7188 23.4993C11.5339 22.9449 11.4178 22.3698 11.3728 21.7871H3.02609C3.06865 22.2575 3.16558 22.7213 3.31495 23.1694C3.55918 23.9016 3.68368 24.6684 3.68366 25.4402C3.68374 26.212 3.55928 26.9788 3.31508 27.7109C3.10647 28.337 3.00008 28.9925 3 29.6524V30.9017C2.99991 31.1634 3.07745 31.4192 3.22281 31.6369C3.36817 31.8545 3.57483 32.0242 3.81662 32.1243C4.05841 32.2245 4.32449 32.2507 4.58117 32.1996C4.83785 32.1485 5.07361 32.0224 5.25861 31.8373L5.76222 31.3337C5.81068 31.2852 5.86821 31.2468 5.93153 31.2206C5.99485 31.1943 6.06271 31.1808 6.13125 31.1808C6.19979 31.1808 6.26765 31.1943 6.33097 31.2206C6.39429 31.2468 6.45182 31.2852 6.50028 31.3337V31.3337Z" fill="#4B4B4B"/>
<path d="M6.65302 6.13125C6.65361 6.66121 6.5779 7.18849 6.42822 7.69688H10.0091C9.85937 7.1885 9.78366 6.66121 9.78427 6.13125V5.60938H6.65302V6.13125Z" fill="#4B4B4B"/>
<path d="M18.3953 3H16.8297C16.3974 3 16.0469 3.35048 16.0469 3.78281C16.0469 4.21515 16.3974 4.56562 16.8297 4.56562H18.3953C18.8277 4.56562 19.1781 4.21515 19.1781 3.78281C19.1781 3.35048 18.8276 3 18.3953 3Z" fill="#4B4B4B"/>
<path d="M5.02393 10.0636L4.32332 10.7643C3.60141 11.4826 3.14555 12.4252 3.03076 13.4371H11.3742C11.4567 12.5364 11.7598 11.6699 12.2567 10.9142C12.2103 10.8634 12.1632 10.8132 12.1143 10.7641L11.4136 10.0635C11.0236 9.67365 10.6942 9.22762 10.4362 8.74023H6.00114C5.74325 9.22765 5.41386 9.67372 5.02393 10.0636V10.0636Z" fill="#4B4B4B"/>
<path d="M18.5232 24.7752C18.4859 24.7006 18.4496 24.6255 18.4145 24.55C18.0086 23.6781 17.7526 22.7441 17.6572 21.7871H12.4196C12.4622 22.2575 12.5591 22.7213 12.7084 23.1694C13.1999 24.6433 13.1999 26.2369 12.7084 27.7109C12.4999 28.337 12.3936 28.9925 12.3936 29.6524V30.9017C12.3935 31.1634 12.4711 31.4192 12.6164 31.6368C12.7618 31.8544 12.9684 32.0241 13.2102 32.1242C13.452 32.2244 13.7181 32.2506 13.9747 32.1995C14.2314 32.1484 14.4671 32.0223 14.6522 31.8372L15.1558 31.3337C15.2042 31.2852 15.2618 31.2468 15.3251 31.2206C15.3884 31.1943 15.4563 31.1808 15.5248 31.1808C15.5933 31.1808 15.6612 31.1943 15.7245 31.2206C15.7878 31.2468 15.8454 31.2852 15.8938 31.3337L16.1998 31.6396C16.5753 32.0129 17.0828 32.2231 17.6123 32.2246C18.1421 32.2246 18.6502 32.0142 19.0248 31.6396L19.3308 31.3337C19.3991 31.2655 19.485 31.2177 19.579 31.1957L19.3015 27.5853C19.2267 26.607 18.9623 25.6526 18.5232 24.7752V24.7752Z" fill="#4B4B4B"/>
<path d="M11.35 20.7439V14.4814H3V20.7439H11.35ZM4.04375 15.5252H5.0875V16.5689H4.04375V15.5252ZM4.04375 17.6127H5.0875V19.7002H4.04375V17.6127Z" fill="#4B4B4B"/>
<circle cx="24.5" cy="23.5" r="10" fill="#4B4B4B" stroke="white"/>
<path d="M23.385 19C23.385 18.4477 23.8327 18 24.385 18C24.9373 18 25.385 18.4477 25.385 19V28C25.385 28.5523 24.9373 29 24.385 29C23.8327 29 23.385 28.5523 23.385 28V19Z" fill="white"/>
<path d="M20 24.4778C19.4477 24.4778 19 24.0301 19 23.4778C19 22.9255 19.4477 22.4778 20 22.4778L29 22.4778C29.5523 22.4778 30 22.9255 30 23.4778C30 24.0301 29.5523 24.4778 29 24.4778L20 24.4778Z" fill="white"/>
</svg>
