<svg width="37" height="37" viewBox="0 0 37 37" fill="none" xmlns="http://www.w3.org/2000/svg">
<path d="M30.1615 22.0696C30.0774 22.0286 29.8129 22.0293 29.6106 22.0455C29.5405 22.0513 29.4533 22.0884 29.4278 22.1494C28.7474 23.768 27.0212 24.8086 25.2276 24.8086H7.33848C6.24885 24.8086 5.23762 24.3591 4.5702 23.8203C4.42195 23.6867 4.27227 23.6918 4.20131 23.6897C3.71058 23.6748 3.24789 23.6365 2.82405 23.5728C2.57098 23.5349 2.33006 23.4881 2.10065 23.433C1.93751 23.3939 1.70311 23.4574 1.79763 23.6402C2.70577 25.3606 4.39105 26.7069 6.47489 26.7069H26.0914C28.243 26.7069 30.1072 25.243 31.027 23.1039C31.0398 23.0739 31.0707 23.014 31.0073 22.9499C30.6625 22.5715 30.2786 22.1266 30.1615 22.0696Z" fill="#4B4B4B"/>
<path d="M12.5692 15.5285C12.8127 14.9887 13.7442 12.9396 14.6452 11.0208C14.6958 10.9132 14.7196 10.7209 14.3793 10.6133C13.3831 10.4015 12.7846 10.3137 11.7659 10.1925C11.7659 10.1926 11.7659 10.1927 11.7659 10.1927C10.7698 10.0739 9.77094 10.0053 8.78458 10.0004C8.65224 9.9997 8.52041 9.9998 8.38898 10.0015C7.28263 10.0148 6.19544 10.1101 5.1475 10.3063L5.13833 10.3081C5.10437 10.3146 5.07032 10.3211 5.03678 10.3278C1.86891 10.9557 1.92387 12.0088 1.62931 12.8715C1.31629 13.788 2.01981 14.5277 1.7383 15.4668C1.53683 16.1391 -2.78348 21.3898 3.0032 22.257C3.89015 22.3901 4.9964 22.4121 6.36714 22.2863C7.67558 22.167 9.22443 21.9137 11.0531 21.4956C11.2521 21.45 11.8345 21.3116 11.945 21.2868C12.2027 21.229 12.1349 21.0893 12.1281 21.0091C12.0017 19.5144 11.9945 16.803 12.5692 15.5285Z" fill="#4B4B4B"/>
<path d="M36.9978 17.6963C36.964 17.5229 36.1462 17.4137 35.4004 17.5603C34.0963 17.8094 32.2418 18.9329 31.8477 18.8324C31.7961 18.8193 31.4488 18.8438 30.5234 18.2061C29.9655 17.8216 29.3366 17.3847 28.5331 16.7837V16.7836V16.7834C27.955 16.3505 27.3203 15.8956 26.6546 15.4494C25.4744 14.6587 24.1969 13.8968 22.9605 13.3386V13.3384C22.8655 13.2954 22.7708 13.2535 22.676 13.2131C21.7659 12.8239 20.7525 12.4294 19.6663 12.0566C19.6663 12.0567 19.6663 12.0568 19.6662 12.0569H19.6661C19.6139 12.039 19.5617 12.0212 19.5089 12.0036C19.412 11.9709 19.2186 11.9186 19.0859 12.1708C18.0811 14.2011 16.385 17.6512 16.2468 18.097C16.0988 18.5747 16.031 19.3819 16.0071 20.2604C16.0053 20.3284 16.0071 20.4834 16.2358 20.4278C17.0789 20.2881 17.6522 20.2121 18.4212 20.1216C19.8656 19.952 21.1807 19.8628 22.3696 19.8328C23.7922 19.7967 25.034 19.8449 26.1003 19.9398C27.3645 20.0523 28.3831 20.2298 29.1644 20.4092C29.8748 20.5724 30.4835 20.5949 30.7136 20.8544C30.7148 20.8558 33.9668 25.1979 34.9087 25.7431C35.0315 25.8139 35.1481 25.7892 35.1628 25.7852C35.6554 25.6537 33.2511 20.1306 33.3807 19.9418C33.4971 19.7723 37.1027 18.2348 36.9978 17.6963Z" fill="#4B4B4B"/>
</svg>
