<svg width="37" height="37" viewBox="0 0 37 37" fill="none" xmlns="http://www.w3.org/2000/svg">
<path d="M19.6321 11.7678V9.03331V8.9328H19.6223C19.6052 8.62407 19.5173 8.32433 19.3647 8.03535C19.1987 7.72035 18.959 7.4197 18.6485 7.1379C17.183 5.80609 14.2295 4.89429 10.8165 4.89429C7.40353 4.89429 4.45003 5.80609 2.9845 7.1379C2.67398 7.4197 2.43526 7.72035 2.26834 8.03535C2.11577 8.32433 2.02603 8.62407 2.01077 8.9328H2V9.03331V20.4874C1.9991 23.3242 5.94607 25.6253 10.8156 25.6253C12.9677 25.6253 14.9385 25.1748 16.4686 24.4281V15.5174V15.4168L16.4794 14.5194H16.6553C16.7065 14.3776 16.7684 14.2385 16.842 14.1003C17.0574 13.6929 17.3625 13.3087 17.7475 12.9578C18.2465 12.5037 18.8935 12.1089 19.6321 11.7678ZM10.8147 11.3765C6.20633 11.3765 3.7922 9.6346 3.7922 9.03241C3.794 9.0028 3.80476 8.9678 3.81643 8.9319C3.89451 8.70305 4.21759 8.37369 4.78747 8.03445C5.32594 7.71406 6.08428 7.38829 7.05083 7.13701C8.07392 6.87136 9.32855 6.68828 10.8156 6.68828C12.3027 6.68828 13.5582 6.87136 14.5804 7.13701C15.547 7.38829 16.3053 7.71406 16.8438 8.03445C17.4127 8.37279 17.7367 8.70305 17.8148 8.9319C17.8265 8.9678 17.8372 9.0019 17.8372 9.03241C17.8372 9.6346 15.4231 11.3765 10.8147 11.3765Z" fill="#4B4B4B"/>
<path d="M34.9901 15.4159C34.974 15.1072 34.8842 14.8075 34.7317 14.5185C34.5656 14.2035 34.326 13.9029 34.0155 13.6211C32.55 12.2892 29.5965 11.3774 26.1835 11.3774C24.4272 11.3774 22.7992 11.6215 21.427 12.0371C21.1147 12.1313 20.8132 12.2336 20.5296 12.3458C20.2101 12.4723 19.9121 12.6096 19.6321 12.7559C19.1331 13.0171 18.697 13.3061 18.3506 13.6211C18.0401 13.9029 17.8013 14.2035 17.6344 14.5185C17.4818 14.8075 17.3921 15.1072 17.3759 15.4159H17.3652V15.5165V23.9166V24.9693V25.969V26.9688C17.3652 29.8065 21.313 32.1067 26.1835 32.1067C31.053 32.1067 35 29.8074 35 26.9688V15.5165V15.4159H34.9901ZM26.1844 17.8606C24.1759 17.8606 22.5838 17.5294 21.4279 17.1067C21.0923 16.9838 20.7925 16.8537 20.5305 16.7208C20.1535 16.5297 19.8556 16.3358 19.633 16.1537C19.3216 15.8988 19.1619 15.6708 19.1619 15.5165C19.1619 15.4859 19.1726 15.451 19.1843 15.4159C19.2328 15.2724 19.3907 15.0866 19.633 14.8865C19.7766 14.7671 19.9444 14.6441 20.1553 14.5185C20.2684 14.4512 20.3985 14.3839 20.5305 14.3166C20.7916 14.1847 21.0941 14.0563 21.4279 13.9343C21.7321 13.823 22.0552 13.7162 22.4187 13.6211C23.4418 13.3554 24.6955 13.1723 26.1835 13.1723C27.6697 13.1723 28.9252 13.3554 29.9474 13.6211C30.9139 13.8723 31.6723 14.1981 32.2107 14.5185C32.7806 14.8577 33.1028 15.1871 33.1818 15.4159C33.1934 15.4518 33.2033 15.4859 33.2033 15.5165C33.206 16.1186 30.7919 17.8606 26.1844 17.8606Z" fill="#4B4B4B"/>
<path d="M27.4588 14.5184C27.0208 14.4403 26.5757 14.3918 26.1844 14.3918C25.8389 14.3918 25.4503 14.434 25.0644 14.4959C24.84 14.4304 24.5663 14.3918 24.2692 14.3918C23.5082 14.3918 22.8925 14.6431 22.8925 14.9536C22.8925 15.0515 22.959 15.1421 23.0667 15.2229C23.0047 15.2857 22.9536 15.3494 22.9311 15.4158C22.9186 15.4499 22.8925 15.4822 22.8925 15.5163C22.8925 16.1374 24.8615 16.6408 26.1844 16.6408C26.5093 16.6408 26.8754 16.6094 27.2398 16.5547C27.4435 16.6058 27.6885 16.6408 27.9667 16.6408C28.6263 16.6408 29.163 16.4703 29.163 16.2594C29.163 16.1831 29.0751 16.1158 28.9548 16.0566C29.2671 15.896 29.4771 15.7138 29.4771 15.5163C29.4771 15.4822 29.4511 15.449 29.4385 15.4158C29.3003 15.0219 28.4154 14.6898 27.4588 14.5184Z" fill="#4B4B4B"/>
<path d="M14.0689 8.93191C13.9944 8.71652 13.7009 8.51909 13.2827 8.35575C13.3706 8.25972 13.4299 8.15383 13.4424 8.03447C13.4442 8.01831 13.4568 8.00395 13.4568 7.9869C13.4568 7.59472 12.9883 7.27612 12.4095 7.27612C11.8584 7.27612 11.4187 7.56779 11.3774 7.93485C11.1827 7.9178 10.9933 7.90703 10.8156 7.90703C10.4243 7.90703 9.9774 7.95549 9.54034 8.03357C9.38329 8.06139 9.22982 8.0928 9.07905 8.1287C8.992 8.091 8.90405 8.056 8.80084 8.03357C8.677 8.00664 8.54687 7.986 8.40776 7.986C8.26866 7.986 8.13853 8.00664 8.01468 8.03357C7.56955 8.13049 7.24826 8.37908 7.24826 8.67793C7.24826 8.76768 7.28147 8.85204 7.33352 8.93101C7.38916 9.01448 7.46903 9.08717 7.56865 9.15089C7.7975 9.71538 9.57893 10.1578 10.8156 10.1578C10.8533 10.1578 10.8955 10.1533 10.9332 10.1524C11.1746 10.4827 11.766 10.7178 12.4615 10.7178C13.3706 10.7178 14.1074 10.3185 14.1074 9.82487C14.1074 9.66243 14.0213 9.51256 13.8813 9.38063C14.0141 9.27025 14.1074 9.15448 14.1074 9.03243C14.1074 8.99832 14.0805 8.96512 14.0689 8.93191Z" fill="#4B4B4B"/>
</svg>
