<svg width="37" height="36" viewBox="0 0 37 36" fill="none" xmlns="http://www.w3.org/2000/svg">
<g filter="url(#filter0_d)">
<path d="M33.4818 26.0635H2.53369C2.23915 26.0635 2.00011 26.302 2.00011 26.5971V29.7986C2.00011 30.0937 2.23915 30.3322 2.53369 30.3322H4.13446V32.4665C4.13446 32.7616 4.37351 33.0001 4.66805 33.0001H6.8024C7.09694 33.0001 7.33599 32.7616 7.33599 32.4665V30.3322H28.6795V32.4665C28.6795 32.7616 28.9186 33.0001 29.2131 33.0001H31.3475C31.642 33.0001 31.881 32.7616 31.881 32.4665V30.3322H33.4818C33.7763 30.3322 34.0154 30.0937 34.0154 29.7986V26.5971C34.0154 26.302 33.7763 26.0635 33.4818 26.0635ZM6.26881 31.9329H5.20164V30.3322H6.26881V31.9329ZM30.8139 31.9329H29.7467V30.3322H30.8139V31.9329Z" fill="#FF651D"/>
<path d="M10.0199 12.6253C9.99911 12.7315 10.0103 12.8447 10.0551 12.9439C10.1218 13.0917 10.2616 13.2043 10.4201 13.2384C10.6031 13.2779 10.7733 13.2139 10.9473 13.168C11.1228 13.1221 11.3005 13.0826 11.4766 13.0383C11.8528 12.9444 12.2284 12.8505 12.6041 12.7566C13.3559 12.5688 14.1077 12.381 14.8596 12.1926C16.3632 11.817 17.8669 11.4408 19.3705 11.0651C20.8742 10.6895 22.3778 10.3133 23.8815 9.93766C24.9492 9.67087 26.0164 9.40408 27.0841 9.13675C28.1278 8.87582 29.1715 8.6149 30.2146 8.35397C30.7258 8.22645 32.6104 8.10319 32.3991 7.25852C32.3276 6.97198 32.0368 6.79857 31.7524 6.87007L13.5982 11.4088L28.433 1.96853C28.6816 1.81005 28.7547 1.48029 28.5968 1.23164C28.4383 0.983523 28.1086 0.909888 27.8604 1.06783C23.1691 4.05379 18.4773 7.03921 13.7854 10.0252C13.1323 10.4408 12.4798 10.856 11.8272 11.2716C11.5006 11.4792 11.1741 11.6873 10.848 11.8949C10.6005 12.0528 10.2253 12.2081 10.0765 12.4754C10.0482 12.5218 10.0301 12.5731 10.0199 12.6253Z" fill="#FF651D"/>
<path d="M27.6124 21.7943H30.8139V18.5928H27.6124V21.7943ZM28.6795 19.6599H29.7467C30.0412 19.6599 30.2803 19.8985 30.2803 20.1935C30.2803 20.4886 30.0412 20.7271 29.7467 20.7271H28.6795C28.385 20.7271 28.1459 20.4886 28.1459 20.1935C28.1459 19.8985 28.385 19.6599 28.6795 19.6599Z" fill="#FF651D"/>
<path d="M32.4168 15.3918H26.0089C25.1274 15.3918 24.4103 16.109 24.4103 16.9905V23.3978C24.4103 24.2793 25.1274 24.9964 26.0089 24.9964H32.4168C33.2983 24.9964 34.0154 24.2793 34.0154 23.3978V16.9905C34.0154 16.109 33.2983 15.3918 32.4168 15.3918ZM31.881 22.3285C31.881 22.6236 31.642 22.8621 31.3475 22.8621H27.0787C26.7842 22.8621 26.5452 22.6236 26.5452 22.3285V18.0598C26.5452 17.7647 26.7842 17.5262 27.0787 17.5262H31.3475C31.642 17.5262 31.881 17.7647 31.881 18.0598V22.3285Z" fill="#FF651D"/>
<path d="M17.4491 15.3918C17.035 15.3918 16.6572 15.6015 16.4374 15.9521C16.4336 15.9585 16.4299 15.9639 16.4262 15.9703L12.3154 23.1716C12.086 23.5387 12.0737 24.0029 12.2834 24.3823C12.4936 24.7611 12.8933 24.9964 13.3266 24.9964H21.6207C22.0539 24.9964 22.4536 24.7611 22.6638 24.3823C22.8741 24.0029 22.8618 23.5392 22.6414 23.1881L18.4597 15.9521C18.2409 15.6015 17.8626 15.3918 17.4491 15.3918ZM16.7842 22.7057C16.6802 22.8098 16.5436 22.8621 16.407 22.8621C16.2704 22.8621 16.1338 22.8098 16.0297 22.7057L15.4961 22.1722C15.2875 21.9635 15.2875 21.6263 15.4961 21.4177C15.7042 21.209 16.0425 21.209 16.2506 21.4177L16.7842 21.9512C16.9923 22.1599 16.9923 22.4971 16.7842 22.7057ZM17.3178 20.5714C17.2138 20.6754 17.0772 20.7277 16.9406 20.7277C16.804 20.7277 16.6674 20.6754 16.5633 20.5714C16.3547 20.3628 16.3547 20.0255 16.5633 19.8169L17.0969 19.2833C17.305 19.0747 17.6433 19.0747 17.8514 19.2833C18.06 19.4919 18.06 19.8292 17.8514 20.0378L17.3178 20.5714ZM19.4522 21.4177C19.6608 21.6263 19.6608 21.9635 19.4522 22.1722L18.9186 22.7057C18.8145 22.8098 18.6779 22.8621 18.5413 22.8621C18.4047 22.8621 18.2681 22.8098 18.1641 22.7057C17.9554 22.4971 17.9554 22.1599 18.1641 21.9512L18.6977 21.4177C18.9058 21.209 19.2441 21.209 19.4522 21.4177Z" fill="#FF651D"/>
<path d="M6.80239 21.7943C7.68495 21.7943 8.40316 21.0761 8.40316 20.1935C8.40316 19.311 7.68495 18.5928 6.80239 18.5928C5.91984 18.5928 5.20163 19.311 5.20163 20.1935C5.20163 21.0761 5.91931 21.7943 6.80239 21.7943ZM6.26881 19.6599H7.33598C7.63052 19.6599 7.86957 19.8985 7.86957 20.1935C7.86957 20.4886 7.63052 20.7271 7.33598 20.7271H6.26881C5.97426 20.7271 5.73522 20.4886 5.73522 20.1935C5.73522 19.8985 5.97426 19.6599 6.26881 19.6599Z" fill="#FF651D"/>
<path d="M6.8024 24.9964C9.4506 24.9964 11.6047 22.8423 11.6047 20.1941C11.6047 17.5459 9.4506 15.3918 6.8024 15.3918C4.15474 15.3918 2.00011 17.5459 2.00011 20.1941C2.00011 22.8423 4.1542 24.9964 6.8024 24.9964ZM6.8024 17.5262C8.2735 17.5262 9.47034 18.723 9.47034 20.1941C9.47034 21.6652 8.2735 22.8621 6.8024 22.8621C5.3313 22.8621 4.13446 21.6652 4.13446 20.1941C4.13446 18.723 5.3313 17.5262 6.8024 17.5262Z" fill="#FF651D"/>
</g>
<defs>
<filter id="filter0_d" x="-1.99989" y="0.984619" width="40.0153" height="40.0155" filterUnits="userSpaceOnUse" color-interpolation-filters="sRGB">
<feFlood flood-opacity="0" result="BackgroundImageFix"/>
<feBlend mode="normal" in="SourceGraphic" in2="effect1_dropShadow" result="shape"/>
</filter>
</defs>
</svg>
