<svg width="37" height="37" viewBox="0 0 37 37" fill="none" xmlns="http://www.w3.org/2000/svg">
<path d="M4.36552 21.1495C5.4388 24.036 7.12631 26.4827 9.79059 28.9923C9.80719 29.0095 9.8249 29.0257 9.84371 29.0405C9.95992 29.1567 10.0759 29.2581 10.1968 29.3694L10.2041 29.3761C10.4781 31.141 13.8011 33.0103 18.4942 33.0103C23.1873 33.0103 26.5101 31.141 26.7841 29.3761L26.7914 29.3694C26.9122 29.2581 27.0284 29.1567 27.1444 29.0405C27.1632 29.0257 27.1812 29.0095 27.1975 28.9923C29.8521 26.4876 31.5445 24.0457 32.618 21.1687C32.8619 20.8214 32.9949 20.4084 33 19.9841C33 17.8174 29.4798 16.334 24.999 15.6164L32.3873 7.71161C32.513 7.58655 32.5602 7.40239 32.5102 7.23218C32.4599 7.06197 32.3207 6.93293 32.1469 6.89597C31.9734 6.859 31.7937 6.92009 31.6784 7.05511L23.8312 15.4495C23.3894 15.3935 22.9414 15.3452 22.4876 15.3045L26.6803 4.65953C26.7478 4.49817 26.7228 4.31269 26.6147 4.17479C26.5067 4.03712 26.3328 3.96828 26.1597 3.99529C25.9868 4.02229 25.8418 4.14071 25.781 4.30472L21.4774 15.2228C20.4907 15.1551 19.4882 15.1199 18.4942 15.1199C11.4637 15.1199 3.98835 16.8267 3.98835 19.9841C3.99123 20.396 4.11938 20.7975 4.35578 21.1349C4.35578 21.1397 4.36065 21.1446 4.36552 21.1495ZM10.4143 27.0677C10.2257 26.8778 10.2257 26.5712 10.4143 26.3811C10.6029 26.1936 10.9075 26.1936 11.0961 26.3811C11.1299 26.4101 12.5031 27.6914 15.5928 27.6914C15.86 27.6914 16.0765 27.9079 16.0765 28.1751C16.0765 28.442 15.86 28.6585 15.5928 28.6585C12.0487 28.6585 10.4821 27.1306 10.4143 27.0677ZM12.8706 20.4047C12.8126 20.429 11.4152 21.0479 11.5022 23.2914C11.1687 23.2334 10.8495 23.1657 10.5352 23.0931C10.5257 20.3371 12.4259 19.5392 12.5129 19.5053C12.7612 19.4066 13.0425 19.5279 13.1415 19.7763C13.2402 20.0246 13.1191 20.3059 12.8706 20.4047ZM13.5186 22.0293C13.7061 22.2181 13.7061 22.5227 13.5186 22.7113C13.3232 22.9543 13.186 23.2387 13.1174 23.5428C13.0394 23.538 12.962 23.5282 12.8852 23.5138C12.6966 23.4897 12.508 23.4607 12.3292 23.4317C12.272 23.4266 12.2154 23.4169 12.1598 23.4027C12.2563 22.8927 12.4885 22.4184 12.832 22.0293C13.022 21.8409 13.3285 21.8409 13.5186 22.0293ZM18.4942 32.0432C14.462 32.0432 12.0598 30.6386 11.3626 29.6662C13.6388 30.5498 16.0528 31.027 18.4942 31.0762C20.9371 31.0262 23.3526 30.547 25.6296 29.66C24.9385 30.6328 22.535 32.0432 18.4942 32.0432ZM19.5192 23.8669C19.2 23.8764 18.8809 23.8813 18.5522 23.8813C18.4743 23.302 18.7452 22.7314 19.2436 22.4259C19.4774 22.3286 19.7467 22.4282 19.861 22.6541C19.9752 22.8801 19.8957 23.1559 19.6788 23.2865C19.6788 23.2865 19.5143 23.4027 19.5143 23.7845C19.5135 23.8122 19.5152 23.8396 19.5192 23.8669ZM18.673 20.8883C18.6053 20.9173 17.0338 21.6039 17.3432 23.8669C17.0096 23.8571 16.6856 23.8474 16.3618 23.8281C16.1247 21.5218 17.4884 20.3177 18.3151 19.989C18.5635 19.89 18.845 20.0113 18.9437 20.2597C19.0427 20.508 18.9214 20.7896 18.673 20.8883ZM22.9281 21.6231C22.9978 21.516 23.1078 21.4412 23.2333 21.4157C23.3588 21.3903 23.4892 21.4164 23.5952 21.4879C24.2251 21.9717 24.6953 22.6338 24.9443 23.3881C24.6253 23.4412 24.2964 23.4897 23.9629 23.5331C23.778 23.0468 23.4677 22.6178 23.0633 22.2905C22.9562 22.2205 22.8814 22.1108 22.8559 21.9853C22.8305 21.8598 22.8566 21.7294 22.9281 21.6231ZM26.1435 23.1657C25.6818 22.4653 25.1198 21.8365 24.4753 21.2993C24.267 21.1311 24.2347 20.8259 24.4029 20.6176C24.5711 20.4093 24.8763 20.3768 25.0846 20.545C25.8972 21.2203 26.5904 22.028 27.1347 22.9337C26.8155 23.0158 26.4868 23.0931 26.1435 23.1657ZM27.7004 22.7836C27.6099 21.9961 27.1672 21.2918 26.4965 20.869C26.3292 20.7993 26.2148 20.6419 26.2004 20.4611C26.1858 20.2805 26.2737 20.1069 26.4277 20.0115C26.5818 19.9162 26.7763 19.9148 26.9317 20.0082C27.8447 20.5423 28.4694 21.4582 28.6336 22.5032C28.3388 22.5999 28.0293 22.6966 27.7004 22.7836ZM24.1997 16.4694C28.9993 17.1507 32.033 18.624 32.033 19.9841C32.0279 20.2043 31.957 20.4184 31.8298 20.5981C31.8143 20.6253 31.7966 20.6512 31.7766 20.6756C31.7673 20.6869 31.7607 20.6999 31.7572 20.7143C31.3939 21.1362 30.9502 21.4813 30.4517 21.7296C29.9214 19.5596 27.9809 18.0299 25.7471 18.021C24.8256 18.0177 23.9232 18.2833 23.1505 18.7849C23.0972 18.8187 23.0441 18.8526 22.9909 18.8913C22.9741 18.9 22.958 18.9095 22.9425 18.9203L22.8893 18.9591C22.8701 18.9735 22.8506 18.9881 22.8362 18.9976C22.8216 19.0073 22.8121 19.0171 22.8024 19.0268C22.6833 19.116 22.5702 19.2129 22.4639 19.3168C22.4515 19.3252 22.4402 19.3349 22.4301 19.3458C22.33 19.4376 22.2348 19.5346 22.1448 19.6359C22.083 19.6271 22.0246 19.6021 21.9754 19.5633H21.9706C21.9557 19.5547 21.9425 19.5434 21.932 19.5295C21.9179 19.518 21.905 19.5049 21.8933 19.491C21.8034 19.4146 21.6999 19.3376 21.5934 19.2597L24.1997 16.4694ZM22.1206 16.2352C22.4252 16.2609 22.7225 16.2904 23.016 16.3218L21.4092 18.0412L22.1206 16.2352ZM18.4942 16.0869C19.3988 16.0869 20.2711 16.1144 21.1091 16.1642L20.1421 18.6147C18.9101 18.3364 17.6185 18.6339 16.6325 19.4232C16.6276 19.4281 16.6181 19.433 16.6132 19.4376C16.532 19.4991 16.4561 19.5671 16.3859 19.6408C15.7677 20.224 15.3483 20.987 15.1867 21.8215C15.134 22.0824 15.1081 22.3483 15.1094 22.6145C15.1077 23.0041 15.1632 23.3917 15.2739 23.7653C15.1674 23.7555 15.0609 23.7507 14.9547 23.7412C14.7274 23.7217 14.5001 23.7024 14.273 23.6783C14.2661 23.679 14.2593 23.6772 14.2535 23.6734C14.1802 23.3253 14.143 22.9704 14.1424 22.6145C14.1424 22.2849 14.1749 21.9563 14.2391 21.6329C14.4018 20.773 14.7907 19.9719 15.3657 19.3119C15.3741 19.2997 15.3839 19.2884 15.3947 19.278C15.4932 19.1627 15.5981 19.0529 15.709 18.9493C15.8113 18.8464 15.9193 18.7495 16.0329 18.6592C16.0426 18.6496 16.0523 18.6448 16.0619 18.635C16.0435 18.6147 16.0222 18.5967 15.999 18.5819C15.213 17.907 14.2112 17.5365 13.1753 17.5374C11.5768 17.5432 10.1087 18.4199 9.3457 19.8245C7.8419 20.4047 7.02471 21.1059 6.90873 21.9182C6.2509 21.6473 5.66855 21.2207 5.21148 20.6756C5.20152 20.653 5.18868 20.6317 5.17297 20.6127C5.03707 20.4308 4.96114 20.211 4.95539 19.9841C4.95539 18.1419 10.5159 16.0869 18.4942 16.0869Z" fill="#FF651D"/>
<path d="M11.7246 11.735C11.7456 12.1352 11.6226 12.5296 11.378 12.8471C11.2084 13.0398 11.2191 13.3313 11.4019 13.5113C11.5849 13.6912 11.8767 13.6968 12.0666 13.5241C12.4953 13.0292 12.7191 12.3893 12.6916 11.735C12.7204 11.0814 12.4986 10.4417 12.0719 9.94593C11.8266 9.62875 11.7033 9.2341 11.7246 8.83391C11.7033 8.4355 11.8246 8.0424 12.0666 7.72499C12.1923 7.6037 12.2425 7.42397 12.1983 7.25486C12.154 7.08576 12.0221 6.95384 11.853 6.90957C11.6839 6.8653 11.5041 6.91577 11.3828 7.04149C10.953 7.53707 10.7294 8.17852 10.7576 8.83391C10.729 9.48731 10.9506 10.1272 11.3775 10.6228C11.6226 10.94 11.7458 11.3346 11.7246 11.735Z" fill="#FF651D"/>
<path d="M14.6257 8.83389C14.6468 9.23408 14.5237 9.62851 14.2791 9.94591C14.1096 10.1387 14.1202 10.4302 14.3032 10.6102C14.4861 10.7901 14.7778 10.7956 14.9677 10.6228C15.3964 10.1281 15.6202 9.48795 15.5928 8.83389C15.6215 8.18027 15.3998 7.54037 14.973 7.04479C14.7278 6.7276 14.6047 6.33295 14.6257 5.93255C14.6047 5.53413 14.7258 5.14125 14.9677 4.82385C15.151 4.63416 15.1483 4.33269 14.9617 4.1461C14.7754 3.95951 14.4737 3.95685 14.284 4.14012C13.8544 4.63593 13.6306 5.27715 13.6587 5.93255C13.6301 6.58617 13.8519 7.22607 14.2787 7.72165C14.5239 8.03883 14.647 8.43348 14.6257 8.83389Z" fill="#FF651D"/>
<path d="M17.527 11.735C17.5479 12.1352 17.4248 12.5296 17.1802 12.8471C17.0107 13.0398 17.0213 13.3313 17.2043 13.5113C17.3874 13.6912 17.6791 13.6968 17.8688 13.5241C18.2978 13.0292 18.5213 12.3893 18.4941 11.735C18.5226 11.0814 18.3009 10.4417 17.8741 9.94593C17.6289 9.62875 17.5058 9.2341 17.527 8.83391C17.5058 8.4355 17.6269 8.0424 17.8688 7.72499C17.9945 7.6037 18.045 7.42397 18.0007 7.25486C17.9565 7.08576 17.8243 6.95384 17.6554 6.90957C17.4863 6.8653 17.3066 6.91577 17.1851 7.04149C16.7555 7.53707 16.5317 8.17852 16.5598 8.83391C16.5312 9.48731 16.753 10.1272 17.1798 10.6228C17.425 10.94 17.5481 11.3346 17.527 11.735Z" fill="#FF651D"/>
</svg>
