<svg width="30" height="30" viewBox="0 0 30 30" fill="none" xmlns="http://www.w3.org/2000/svg">
<path d="M11.2927 12.1272C11.7781 12.1272 12.1716 11.7337 12.1716 11.2483C12.1716 10.7629 11.7781 10.3694 11.2927 10.3694C10.8073 10.3694 10.4138 10.7629 10.4138 11.2483C10.4138 11.7337 10.8073 12.1272 11.2927 12.1272Z" fill="#FF651D"/>
<path d="M18.7073 19.6306C19.1927 19.6306 19.5862 19.2371 19.5862 18.7517C19.5862 18.2663 19.1927 17.8728 18.7073 17.8728C18.2219 17.8728 17.8284 18.2663 17.8284 18.7517C17.8284 19.2371 18.2219 19.6306 18.7073 19.6306Z" fill="#FF651D"/>
<path d="M29.743 14.379L27.1176 11.7536L28.0785 8.16737C28.2042 7.69851 27.9259 7.21657 27.4571 7.09095L23.8708 6.13001L22.9099 2.54378C22.7842 2.07497 22.3024 1.79653 21.8334 1.92233L18.2473 2.88321L15.6219 0.25792C15.2787 -0.0853223 14.7222 -0.0853223 14.379 0.25792L11.7536 2.88321L8.16731 1.92228C7.69839 1.79659 7.21645 2.07485 7.09089 2.54372L6.12995 6.12995L2.54366 7.09089C2.0748 7.21651 1.79659 7.69845 1.92216 8.16731L2.8831 11.7537L0.25792 14.379C-0.0853223 14.7223 -0.0853223 15.2787 0.25792 15.622L2.88321 18.2473L1.92228 21.8335C1.79671 22.3021 2.07491 22.7843 2.54378 22.91L6.13001 23.8709L7.09095 27.4572C7.2164 27.9255 7.69845 28.2044 8.16737 28.0787L11.7537 27.1178L14.3791 29.7431C14.7223 30.0864 15.2788 30.0864 15.622 29.7431L18.2474 27.1178L21.8336 28.0787C22.3022 28.2042 22.7844 27.9261 22.91 27.4572L23.871 23.8709L27.4571 22.91C27.926 22.7843 28.2043 22.3024 28.0786 21.8335L27.1176 18.2473L29.743 15.6219C30.0862 15.2787 30.0862 14.7223 29.743 14.379ZM8.65646 11.2489C8.65646 9.79499 9.83929 8.61216 11.2932 8.61216C12.7471 8.61216 13.9299 9.79499 13.9299 11.2489C13.9299 12.7028 12.7471 13.8856 11.2932 13.8856C9.83929 13.8856 8.65646 12.7028 8.65646 11.2489ZM11.9671 19.2767C11.6239 19.62 11.0674 19.62 10.7242 19.2767C10.3809 18.9335 10.3809 18.377 10.7242 18.0338L18.0337 10.7242C18.3769 10.381 18.9334 10.381 19.2767 10.7242C19.6199 11.0675 19.6199 11.6239 19.2767 11.9672L11.9671 19.2767ZM18.7077 21.3888C17.2539 21.3888 16.071 20.2059 16.071 18.752C16.071 17.2982 17.2539 16.1153 18.7077 16.1153C20.1616 16.1153 21.3445 17.2982 21.3445 18.752C21.3445 20.206 20.1616 21.3888 18.7077 21.3888Z" fill="#FF651D"/>
</svg>
