<svg width="37" height="37" viewBox="0 0 37 37" fill="none" xmlns="http://www.w3.org/2000/svg">
<g clip-path="url(#clip0)">
<path d="M29.0531 26.1533C28.1493 25.5414 27.2197 24.966 26.3197 24.348C24.8869 23.3652 23.505 22.314 22.0836 21.3167C17.9425 18.4078 13.3643 17.1353 8.35367 16.7674C7.2021 16.6831 6.05433 16.6891 4.91036 16.7842C4.07347 16.8541 3.39621 17.0053 3.38937 17.0593C3.38329 17.1087 3.37797 17.1581 3.37797 17.1581C3.31792 17.7442 3.27307 18.4891 3.29208 19.3283C3.32324 19.988 3.39317 20.698 3.53227 21.4406C3.54291 21.5067 3.74206 22.6256 4.62151 23.4306C5.241 23.9976 5.96311 24.1413 5.97983 24.1428L6.01024 24.1466C6.05585 24.1542 10.9358 24.6103 14.9188 25.4312C14.9644 25.4388 20.0571 26.655 21.8814 27.4759C22.019 27.5283 25.3103 28.9194 27.7647 28.9194C28.2207 28.9194 28.6228 28.8715 28.9702 28.7749C29.6193 28.5971 30.2502 28.0179 30.4669 27.745C30.6835 27.4721 30.8173 27.2175 30.8097 27.2091C30.8013 27.2 30.3787 27.0069 29.9013 26.712C29.6125 26.5349 29.3328 26.3433 29.0531 26.1533Z" fill="#4B4B4B"/>
<path d="M36.8366 25.0002C36.452 24.3488 35.5733 23.4876 34.798 23.1653V23.1645C34.326 22.9684 33.8114 22.7731 33.261 22.5921C31.4413 21.9909 29.2233 21.5394 26.8936 21.7074C26.0552 21.7674 26.0118 21.6245 26.8259 21.4193C28.2496 21.062 30.609 20.7664 33.4298 21.5561C33.7764 21.6557 34.1291 21.7705 34.4894 21.905C35.0663 22.1186 35.2662 21.6967 34.8778 20.9518C34.7045 20.6212 34.497 20.2464 34.2499 19.8383C33.8159 19.12 32.7996 18.2793 31.9939 18.0429C29.7843 17.3937 26.7233 17.1953 23.0086 18.73C22.9189 18.7642 22.8285 18.8015 22.738 18.8402C22.5891 18.9041 22.5404 18.8972 22.6309 18.8243C22.6772 18.7878 22.7335 18.7445 22.7988 18.6958C23.7627 17.9555 26.7476 16.0445 30.9419 16.8457C31.7659 17.003 31.9871 16.6952 31.4185 16.0772C31.0544 15.6812 30.663 15.2821 30.2411 14.8838C29.6315 14.3069 28.4313 13.7536 27.5936 13.7193C25.5512 13.635 22.9638 14.0257 20.1308 15.6326C19.4004 16.0468 19.2689 15.9024 19.9104 15.362C21.0894 14.3685 23.245 13.0345 26.4086 12.9129C27.2478 12.8802 27.3808 12.5397 26.6754 12.0859C26.135 11.7385 25.5657 11.4025 24.9652 11.081C24.2248 10.685 22.922 10.4144 22.0919 10.5459C20.0807 10.8636 17.7411 11.7651 15.5428 13.8934C14.94 14.4772 14.8116 14.3913 15.311 13.7163C16.198 12.5176 17.8482 10.8112 20.4341 10.0275C21.2376 9.78425 21.3371 9.47944 20.6082 9.24305C20.1772 9.10319 19.7333 8.97093 19.2765 8.84855C19.2765 8.84855 19.0249 8.76342 18.5772 8.6494C18.188 8.55058 17.2059 8.65168 16.4253 8.96029C14.652 9.66035 12.7106 10.8826 11.0285 13.0033C10.5071 13.6608 10.3246 13.578 10.7085 12.8315C11.3128 11.6564 12.4917 9.9986 14.6672 8.82271C15.406 8.42365 15.3756 8.11656 14.5364 8.09072C14.2065 8.08084 13.866 8.07855 13.5148 8.08692C12.6757 8.10668 11.4025 8.51942 10.7252 9.01653C9.50751 9.91043 8.20696 11.1631 6.95962 12.9197C6.4739 13.6046 6.3424 13.543 6.70422 12.7852C7.12 11.9148 7.76762 10.764 8.68203 9.68315C9.22475 9.04238 9.07501 8.75125 8.28601 9.03934C7.88847 9.18452 7.49018 9.3487 7.09264 9.53493C6.33252 9.89142 5.29041 10.7534 4.79329 11.4291C4.33115 12.057 3.8766 12.7745 3.45854 13.5886C3.07468 14.335 2.93634 14.2948 3.2039 13.4989C3.28827 13.2481 3.38937 12.9752 3.51098 12.6879C3.83859 11.9148 3.66149 11.7545 3.061 12.3405C2.08957 13.2876 1.16832 14.4323 0.332953 15.818C0.332953 15.818 0.163448 16.0719 0.0228272 16.3843C-0.123875 16.7096 0.459132 16.7438 1.28233 16.5789C2.21119 16.3927 3.27307 16.2224 3.43193 16.195C3.56875 16.1715 3.70633 16.1586 3.84315 16.1373C5.48424 15.8872 7.13672 15.8211 8.79529 15.9427C13.8052 16.3106 18.3841 17.583 22.5252 20.492C23.9459 21.49 25.3293 22.5412 26.7606 23.524C27.662 24.142 28.5909 24.7159 29.4947 25.3293C30.0564 25.7109 30.6219 26.0955 31.2369 26.3684C31.5394 26.5022 31.8533 26.6192 32.1908 26.6777C33.5514 26.9172 34.7987 26.5896 36.0795 26.3517C36.9035 26.1989 37.225 25.6531 36.8366 25.0002Z" fill="#4B4B4B"/>
</g>
<defs>
<clipPath id="clip0">
<rect width="37" height="37" fill="white"/>
</clipPath>
</defs>
</svg>
