<svg width="33" height="31" viewBox="0 0 33 31" fill="none" xmlns="http://www.w3.org/2000/svg">
<path d="M21.1788 7.56895L20.7972 8.40937C20.5543 8.98085 20.8318 9.65319 21.4216 9.92212C21.5604 9.98936 21.7338 10.023 21.8726 10.023C22.3236 10.023 22.7746 9.75404 22.9481 9.31702L23.3297 8.4766C23.9195 7.13193 23.7113 5.58556 22.7399 4.44259C22.2889 3.90472 22.2195 3.09792 22.6012 2.49282L23.0522 1.78686C23.3991 1.249 23.2256 0.543044 22.6705 0.206876C22.1155 -0.129291 21.3869 0.0387925 21.04 0.576661L20.589 1.28261C19.687 2.72813 19.7911 4.54344 20.9012 5.85449C21.3175 6.32513 21.4216 6.99746 21.1788 7.56895Z" fill="#FF651D"/>
<path d="M15.8362 7.56895L15.4892 8.40937C15.2464 8.98085 15.5239 9.65319 16.1137 9.92212C16.2525 9.98936 16.4259 10.023 16.5647 10.023C17.0157 10.023 17.4667 9.75404 17.6402 9.31702L18.0218 8.4766C18.6115 7.13193 18.4034 5.58556 17.432 4.44259C16.981 3.90472 16.9116 3.09792 17.2932 2.49282L17.7442 1.78686C18.0912 1.249 17.9177 0.543044 17.3626 0.206876C16.8075 -0.129291 16.079 0.0387925 15.7321 0.576661L15.2811 1.28261C14.3791 2.72813 14.4832 4.54344 15.5933 5.85449C16.0096 6.32513 16.1137 6.99746 15.8362 7.56895Z" fill="#FF651D"/>
<path d="M10.5282 7.56912L10.1466 8.40954C9.90377 8.98102 10.1813 9.65336 10.7711 9.92229C10.9098 9.98952 11.0833 10.0231 11.2221 10.0231C11.6731 10.0231 12.1241 9.75421 12.2975 9.31719L12.7138 8.44315C13.3036 7.09848 13.0955 5.55211 12.1241 4.40914C11.6731 3.87127 11.6037 3.06447 11.9853 2.45937L12.4363 1.75342C12.7832 1.21555 12.6098 0.509597 12.0547 0.173429C11.4996 -0.162739 10.7711 0.00534523 10.4242 0.543213L9.97316 1.24917C9.07116 2.69469 9.17523 4.50999 10.2854 5.82105C10.7017 6.3253 10.7711 6.99763 10.5282 7.56912Z" fill="#FF651D"/>
<path d="M16.53 22.8312C12.1241 22.8312 7.92631 22.4614 4.76931 21.7891C3.55508 21.5201 2.13269 21.1503 0.953156 20.5789C2.61839 26.5626 8.96708 31.0001 16.53 31.0001C24.0929 31.0001 30.4416 26.5626 32.1068 20.5789C30.9273 21.1503 29.5049 21.5201 28.2907 21.7891C25.1337 22.4614 20.9359 22.8312 16.53 22.8312Z" fill="#FF651D"/>
<path d="M30.3029 11.3007L28.3254 10.8973C27.3887 10.7292 26.4173 10.8973 25.6541 11.4351C24.8909 11.973 24.3705 12.8134 24.2664 13.7211L24.1623 14.3934C21.9073 14.1245 19.3054 13.99 16.53 13.99C13.7546 13.99 11.1527 14.1581 8.86301 14.3934L8.75893 13.7211C8.65485 12.8134 8.13447 11.973 7.37124 11.4351C6.60801 10.8973 5.63662 10.6956 4.69993 10.8973L2.72247 11.3007C0.883776 11.6705 -0.26107 13.3513 0.0511606 15.0994C0.0511606 15.0994 0.467468 17.3853 0.467468 17.4189C0.467468 19.3015 7.64878 20.8478 16.4953 20.8478C25.3419 20.8478 32.5232 19.3015 32.5232 17.4189C32.5232 17.3853 32.9395 15.0994 32.9395 15.0994C33.2864 13.3513 32.1069 11.6705 30.3029 11.3007ZM2.68778 15.7045L2.51431 14.696C2.41024 14.1917 2.75716 13.7211 3.27755 13.6202L5.25501 13.2168C5.53255 13.1496 5.77539 13.2168 6.01824 13.3849C6.22639 13.553 6.36516 13.7547 6.39985 14.0236L6.50393 14.7632C4.94278 14.9985 3.65916 15.3347 2.68778 15.7045ZM30.3722 15.7045C29.4009 15.3347 28.1172 15.0321 26.5908 14.7632L26.6949 14.0236C26.7295 13.7547 26.8683 13.5194 27.0765 13.3849C27.2846 13.2168 27.5622 13.1832 27.8397 13.2168L29.8172 13.6202C30.3375 13.7211 30.6498 14.1917 30.5804 14.696L30.3722 15.7045Z" fill="#FF651D"/>
</svg>
